<?xml version="1.0" standalone="no"?>
<!DOCTYPE svg PUBLIC "-//W3C//DTD SVG 20010904//EN"
 "http://www.w3.org/TR/2001/REC-SVG-20010904/DTD/svg10.dtd">
<svg version="1.0" xmlns="http://www.w3.org/2000/svg"
 width="750.000000pt" height="750.000000pt" viewBox="0 0 750.000000 750.000000"
 preserveAspectRatio="xMidYMid meet">
<metadata>
Created by potrace 1.14, written by Peter Selinger 2001-2017
</metadata>
<g transform="translate(0.000000,750.000000) scale(0.100000,-0.100000)"
fill="#000000" stroke="none">
<path d="M3425 7419 c-523 -44 -1090 -227 -1552 -503 -271 -162 -477 -321
-708 -551 -293 -290 -512 -587 -688 -932 -305 -600 -430 -1193 -397 -1885 26
-542 184 -1098 443 -1562 208 -371 412 -631 743 -946 287 -273 700 -535 1089
-690 295 -118 495 -173 881 -244 139 -26 522 -39 744 -26 415 24 852 131 1248
305 279 123 586 309 827 501 228 182 508 478 681 720 219 307 413 693 515
1022 138 446 194 877 170 1311 -22 398 -95 751 -231 1116 -58 157 -56 152
-155 350 -187 370 -395 656 -700 961 -286 285 -601 510 -977 694 -385 190
-869 322 -1321 359 -145 12 -464 12 -612 0z m840 -2363 c200 -2 265 -10 272
-32 2 -6 -16 -35 -39 -65 -24 -31 -52 -75 -63 -98 l-19 -43 23 -42 c96 -171
171 -351 195 -469 31 -150 48 -368 49 -622 1 -271 -13 -403 -60 -584 -58 -227
-233 -475 -409 -579 -117 -70 -140 -75 -314 -76 -143 -1 -161 1 -237 27 -65
22 -92 26 -135 22 -67 -8 -285 8 -299 22 -6 6 9 30 45 71 31 34 60 71 66 82
12 23 7 35 -51 121 -117 173 -155 298 -200 654 -19 146 -20 177 -9 355 25 427
80 670 205 897 52 95 149 217 205 258 120 88 232 117 425 109 77 -3 235 -6
350 -8z m1255 0 c140 -34 253 -117 355 -260 59 -83 94 -161 116 -260 33 -147
21 -268 -32 -296 -28 -16 -300 -4 -324 14 -14 10 -12 18 20 71 33 55 36 65 33
121 -5 76 -49 171 -115 245 -110 121 -235 119 -361 -7 -108 -108 -161 -256
-133 -371 38 -150 134 -257 346 -383 214 -128 344 -235 442 -364 129 -173 170
-366 123 -580 -25 -113 -57 -183 -126 -273 -128 -166 -288 -253 -469 -253 -94
0 -173 18 -264 62 -191 91 -352 372 -352 615 0 64 5 101 16 122 l16 31 174 0
c196 0 196 0 145 -65 -60 -75 -58 -149 5 -275 106 -211 261 -256 423 -123 86
71 154 220 156 343 2 138 -124 288 -359 429 -181 109 -287 192 -376 294 -143
164 -179 238 -200 408 -13 109 -9 148 30 288 64 227 247 414 456 467 67 16
187 16 255 0z m-3602 -22 c51 -6 52 -15 10 -97 -33 -61 -33 -64 -33 -197 0
-129 1 -138 28 -189 82 -155 532 -852 584 -905 45 -45 71 -44 96 4 17 33 18
73 14 630 -3 327 -8 608 -12 624 -5 19 -18 33 -40 42 -24 10 -34 21 -39 45 -3
17 -3 35 0 40 3 5 108 9 235 9 201 0 229 -2 229 -16 0 -21 -16 -49 -45 -78
-13 -13 -27 -39 -30 -58 -11 -59 1 -2239 13 -2281 6 -22 20 -50 33 -63 12 -13
21 -25 18 -27 -49 -36 -58 -37 -244 -37 l-187 0 7 32 c4 18 18 50 32 71 25 35
26 42 20 135 -10 172 -54 273 -269 610 -68 106 -150 237 -182 290 -95 155
-188 282 -206 282 -20 0 -56 -36 -68 -70 -5 -14 -6 -275 -3 -616 l6 -591 28
-39 c15 -22 27 -52 27 -67 l0 -27 -215 0 c-246 0 -238 -3 -182 84 l32 51 3
1055 c2 580 0 1101 -3 1158 l-7 103 -38 24 c-31 19 -37 28 -33 49 5 24 9 25
82 28 95 4 282 -1 339 -8z"/>
<path d="M3746 4754 c-103 -33 -213 -179 -281 -374 -32 -94 -40 -132 -70 -355
-23 -174 -13 -552 20 -726 31 -169 38 -194 54 -194 8 0 55 122 122 315 60 173
148 416 194 540 74 197 124 338 247 693 23 68 28 91 19 100 -19 19 -246 20
-305 1z"/>
<path d="M4266 4378 c-8 -18 -70 -195 -139 -393 -69 -198 -142 -403 -162 -455
-20 -52 -54 -144 -75 -205 -21 -60 -72 -204 -114 -320 -42 -115 -72 -212 -68
-216 14 -14 154 -59 181 -59 30 0 139 33 182 56 46 23 148 133 188 202 39 68
78 175 107 299 20 86 24 598 5 776 -14 131 -62 339 -80 345 -6 2 -18 -11 -25
-30z"/>
</g>
</svg>
