<?xml version="1.0" standalone="no"?>
<!DOCTYPE svg PUBLIC "-//W3C//DTD SVG 20010904//EN"
 "http://www.w3.org/TR/2001/REC-SVG-20010904/DTD/svg10.dtd">
<svg version="1.0" xmlns="http://www.w3.org/2000/svg"
 width="512.000000pt" height="512.000000pt" viewBox="0 0 512.000000 512.000000"
 preserveAspectRatio="xMidYMid meet">

<g transform="translate(0.000000,512.000000) scale(0.100000,-0.100000)"
fill="#000000" stroke="none">
<path d="M192 4451 c-70 -24 -118 -65 -156 -131 l-31 -55 -3 -1409 c-3 -1577
-7 -1473 69 -1560 77 -87 90 -91 359 -94 l235 -3 17 -70 c25 -101 73 -191 145
-269 225 -243 573 -275 839 -77 104 76 195 216 225 342 6 28 13 56 15 63 3 10
171 12 820 10 l816 -3 18 -71 c43 -169 168 -326 320 -404 139 -71 331 -85 475
-36 111 38 182 84 262 170 79 84 126 170 151 273 l17 73 79 0 c60 0 90 5 123
21 53 25 106 86 121 138 9 27 12 216 12 655 l0 617 -34 87 c-86 219 -399 941
-424 977 -31 45 -104 98 -160 117 -27 9 -186 13 -584 15 l-547 4 -3 212 c-3
191 -5 217 -24 258 -27 58 -85 116 -143 143 l-46 21 -1455 2 c-1389 2 -1457 2
-1508 -16z m2948 -159 c20 -10 42 -32 52 -52 17 -33 18 -123 18 -1458 l0
-1422 -652 2 -651 3 -14 60 c-22 95 -78 198 -153 278 -74 79 -145 126 -248
165 -59 23 -82 26 -202 26 -121 1 -142 -2 -207 -25 -93 -34 -200 -106 -263
-177 -61 -68 -125 -191 -142 -273 l-12 -59 -208 0 c-234 0 -254 5 -282 64 -15
31 -16 157 -16 1413 0 1364 0 1378 20 1411 40 65 -55 61 1505 62 1332 0 1422
-1 1455 -18z m1294 -632 c22 -5 51 -17 65 -28 26 -19 80 -106 81 -129 0 -10
-102 -13 -475 -13 l-476 0 -24 -25 -25 -24 0 -389 c0 -378 1 -390 21 -416 l20
-26 667 -2 667 -3 3 -257 2 -258 -58 0 c-70 0 -119 -15 -132 -40 -16 -31 -11
-72 12 -97 19 -20 31 -23 100 -23 l78 0 0 -263 c0 -251 -1 -264 -20 -285 -17
-18 -32 -22 -88 -22 l-68 0 -12 59 c-18 85 -82 206 -146 277 -188 208 -494
263 -749 136 -148 -74 -283 -246 -320 -407 l-14 -60 -86 -3 -87 -3 0 1156 0
1155 513 0 c281 0 530 -5 551 -10z m336 -601 c63 -150 117 -276 118 -280 2 -5
-254 -9 -572 -9 l-576 0 0 280 0 280 458 0 457 0 115 -271z m-3365 -1333 c200
-53 346 -240 345 -445 -1 -134 -42 -235 -136 -328 -108 -109 -252 -158 -396
-134 -199 33 -354 184 -389 381 -39 221 101 451 319 521 68 22 186 24 257 5z
m2894 -5 c85 -26 140 -61 203 -129 254 -275 101 -712 -270 -773 -234 -39 -467
122 -522 360 -17 71 -8 191 20 263 84 224 342 350 569 279z"/>
<path d="M459 3471 l-24 -19 0 -387 0 -387 29 -25 c23 -19 36 -24 60 -19 59
12 66 31 66 196 l0 148 141 4 c140 3 141 3 165 31 29 34 31 67 5 98 -18 23
-27 24 -163 29 l-143 5 -3 93 -3 92 164 0 c170 0 220 9 237 40 16 31 11 79
-10 100 -19 19 -33 20 -259 20 -220 0 -241 -1 -262 -19z"/>
<path d="M1102 3467 c-22 -23 -22 -27 -22 -404 0 -348 2 -383 18 -402 28 -34
73 -37 108 -8 l29 25 3 151 3 151 39 0 38 0 92 -157 c50 -87 97 -164 103 -170
7 -7 27 -15 44 -19 27 -5 37 -1 63 24 16 17 30 39 30 49 0 11 -31 74 -70 141
-38 67 -70 126 -70 131 0 5 11 11 23 15 38 9 78 46 98 90 15 32 19 66 19 156
0 100 -3 122 -22 160 -13 25 -38 55 -57 67 -33 22 -43 23 -241 23 -203 0 -207
0 -228 -23z m386 -229 l-3 -93 -122 -3 -123 -3 0 96 0 95 125 0 126 0 -3 -92z"/>
<path d="M1741 3464 c-20 -26 -21 -38 -21 -395 0 -248 4 -376 11 -392 19 -42
46 -47 275 -47 169 0 221 3 243 15 48 24 56 81 16 120 -24 25 -26 25 -205 25
l-180 0 0 94 0 94 140 4 c124 3 142 5 159 23 31 32 31 85 1 115 -18 18 -33 20
-160 20 l-140 0 0 94 0 95 181 3 181 3 24 28 c29 34 31 66 3 101 l-20 26 -244
0 -244 0 -20 -26z"/>
<path d="M2390 3470 c-11 -11 -22 -30 -25 -42 -3 -13 -5 -187 -3 -386 l3 -364
28 -24 c28 -24 29 -24 258 -24 l230 0 24 25 c33 32 34 83 2 113 -22 21 -32 22
-205 22 l-182 0 0 95 0 95 136 0 136 0 29 29 c34 34 37 69 10 102 -18 23 -27
24 -163 29 l-143 5 -3 93 -3 92 164 0 c170 0 220 9 237 40 16 31 11 79 -10
100 -19 19 -33 20 -260 20 -226 0 -241 -1 -260 -20z"/>
<path d="M1183 1554 c-23 -9 -62 -33 -87 -55 -127 -112 -136 -304 -18 -425
175 -180 479 -69 500 182 6 86 -17 150 -79 219 -80 87 -204 118 -316 79z m175
-164 c59 -36 78 -118 42 -177 -27 -45 -64 -66 -116 -66 -113 0 -170 127 -97
214 15 17 36 35 47 39 37 15 90 11 124 -10z"/>
<path d="M4060 1553 c-67 -24 -154 -115 -174 -183 -21 -71 -20 -128 4 -192 54
-144 196 -221 341 -184 114 30 196 113 220 225 29 137 -57 290 -188 335 -58
20 -144 19 -203 -1z m166 -159 c44 -21 79 -90 70 -139 -19 -100 -145 -145
-218 -78 -118 106 4 285 148 217z"/>
</g>
</svg>
