<?xml version="1.0" standalone="no"?>
<!DOCTYPE svg PUBLIC "-//W3C//DTD SVG 20010904//EN"
 "http://www.w3.org/TR/2001/REC-SVG-20010904/DTD/svg10.dtd">
<svg version="1.0" xmlns="http://www.w3.org/2000/svg"
 width="206.000000pt" height="206.000000pt" viewBox="0 0 206.000000 206.000000"
 preserveAspectRatio="xMidYMid meet">
<metadata>
Created by potrace 1.11, written by Peter Selinger 2001-2013
</metadata>
<g transform="translate(0.000000,206.000000) scale(0.100000,-0.100000)"
fill="#000000" stroke="none">
<path d="M865 2050 c-52 -22 -340 -135 -424 -166 -52 -19 -99 -38 -105 -43 -6
-5 -28 -14 -48 -20 -21 -7 -40 -21 -43 -32 -8 -24 177 -404 201 -413 8 -3 38
6 66 20 70 36 74 29 60 -108 -6 -62 -7 -117 -3 -121 5 -5 26 -7 47 -5 34 3 39
6 38 28 -1 14 2 88 7 164 5 88 4 146 -2 158 -10 18 -64 26 -71 10 -6 -15 -103
-51 -113 -42 -5 5 -25 39 -44 77 -19 37 -47 94 -62 125 -16 31 -29 59 -29 62
0 8 76 40 155 66 39 13 79 29 90 37 11 7 38 18 60 24 22 6 71 25 110 41 123
54 122 54 155 -1 100 -162 306 -161 425 4 14 20 14 20 47 1 18 -11 85 -46 148
-79 63 -32 120 -63 125 -67 6 -4 52 -29 103 -55 50 -26 92 -53 92 -59 0 -13
-112 -190 -147 -234 l-18 -22 -65 39 c-36 22 -71 40 -77 41 -27 0 -41 -47 -47
-154 -3 -61 -12 -123 -19 -139 l-12 -28 -160 7 c-129 5 -176 3 -240 -10 -58
-11 -147 -17 -323 -18 -192 -2 -245 -6 -251 -17 -6 -9 -10 -10 -12 -2 -3 8
-22 3 -55 -14 -41 -20 -55 -34 -70 -68 -10 -23 -19 -43 -20 -45 -1 -2 -23 -5
-49 -8 -26 -2 -53 -8 -59 -11 -6 -4 -19 -6 -28 -5 -24 4 -46 -43 -62 -135 -24
-131 -27 -163 -16 -163 6 0 6 -9 0 -26 -12 -30 -13 -124 -2 -124 4 0 7 -21 7
-46 1 -71 28 -89 145 -97 51 -3 96 -10 101 -14 4 -4 -4 -42 -18 -83 -25 -74
-38 -192 -26 -238 7 -29 71 -46 138 -37 114 15 636 23 855 13 200 -10 229 -9
263 5 20 9 40 24 44 33 3 9 1 65 -6 123 -6 58 -14 135 -16 170 -10 136 -27
235 -51 299 -14 37 -28 70 -32 73 -11 10 -163 -10 -179 -22 -9 -8 -13 -8 -13
0 0 18 -58 13 -69 -6 -6 -10 -11 -12 -11 -5 0 9 -31 12 -119 12 -118 0 -119 0
-115 -22 l5 -23 -10 23 c-8 17 -19 22 -53 24 -24 1 -61 2 -83 3 -22 2 -109 5
-192 9 l-153 6 -24 -38 c-14 -20 -34 -70 -45 -109 -11 -40 -22 -77 -25 -82 -8
-13 -173 -13 -196 -1 -17 9 -20 21 -20 75 0 37 -4 65 -10 65 -5 0 -10 -5 -10
-11 0 -5 -4 -7 -10 -4 -17 11 -11 25 11 25 19 0 21 5 18 62 -4 64 6 81 33 54
32 -31 86 25 58 59 -15 18 -52 19 -68 3 -17 -17 -15 -1 5 44 16 36 20 38 60
38 32 0 43 4 43 15 0 8 4 15 9 15 5 0 7 -9 4 -20 -5 -19 0 -19 133 -19 82 0
144 5 151 11 9 7 13 7 13 -1 0 -13 105 -11 540 10 118 5 289 9 380 7 91 -1
193 -2 228 -3 57 0 82 -9 47 -17 -13 -2 -16 -32 -19 -178 -2 -96 -7 -190 -11
-207 l-7 -33 -77 0 c-81 -1 -111 -13 -111 -46 0 -81 125 -103 235 -41 l40 23
7 94 c12 165 8 360 -9 412 -15 48 -69 98 -106 98 -11 0 -18 12 -23 38 -13 75
-53 102 -151 102 -23 0 -44 4 -47 8 -2 4 -2 48 2 97 8 101 12 105 79 59 20
-13 41 -24 48 -24 14 0 51 48 120 152 24 37 55 83 69 101 14 19 26 37 26 41 0
4 9 20 21 35 43 58 20 80 -206 195 -49 25 -135 71 -190 101 -55 31 -128 70
-163 86 -58 29 -64 30 -86 16 -13 -9 -26 -30 -29 -47 -4 -17 -21 -44 -39 -60
-64 -59 -138 -64 -203 -14 -41 31 -59 62 -69 117 -6 34 -10 37 -39 36 -18 0
-41 -4 -52 -9z m-95 -934 c0 -3 -4 -8 -10 -11 -5 -3 -10 -1 -10 4 0 6 5 11 10
11 6 0 10 -2 10 -4z m92 -61 c90 0 177 5 193 10 17 5 157 9 313 10 250 0 285
-2 305 -17 16 -12 19 -20 11 -28 -18 -18 -178 -29 -489 -35 -159 -3 -397 -7
-527 -10 -190 -3 -238 -1 -238 9 0 17 29 42 58 50 12 4 22 10 22 14 0 4 38 5
85 3 66 -2 85 0 85 10 0 11 2 11 10 -1 7 -12 39 -15 172 -15z m-427 -25 c3 -5
1 -10 -4 -10 -6 0 -11 5 -11 10 0 6 2 10 4 10 3 0 8 -4 11 -10z m-15 -60 c0
-5 -7 -10 -16 -10 -8 0 -12 5 -9 10 3 6 10 10 16 10 5 0 9 -4 9 -10z m1005 0
c-27 -12 -43 -12 -25 0 8 5 22 9 30 9 10 0 8 -3 -5 -9z m-727 -40 c-7 -10 -14
-17 -17 -15 -4 4 18 35 25 35 2 0 -1 -9 -8 -20z m-528 -184 c0 -8 -4 -18 -10
-21 -5 -3 -10 3 -10 14 0 12 5 21 10 21 6 0 10 -6 10 -14z m-10 -76 c0 -16 -2
-30 -4 -30 -2 0 -6 14 -8 30 -3 17 -1 30 4 30 4 0 8 -13 8 -30z m550 15 c-7
-8 -16 -15 -21 -15 -5 0 -9 7 -9 15 0 9 9 15 21 15 18 0 19 -2 9 -15z m684
-30 c-4 -8 -10 -12 -15 -9 -11 6 -2 24 11 24 5 0 7 -7 4 -15z m-647 -17 c-3
-8 -6 -5 -6 6 -1 11 2 17 5 13 3 -3 4 -12 1 -19z m-215 -20 c-7 -7 -12 -8 -12
-2 0 14 12 26 19 19 2 -3 -1 -11 -7 -17z m115 13 c20 -6 35 -6 38 0 9 14 45
11 45 -5 0 -20 215 -30 507 -24 l232 5 15 -66 c8 -36 17 -90 21 -119 4 -28 10
-50 14 -48 3 3 5 -27 3 -66 -4 -58 -1 -73 12 -80 20 -11 21 -28 1 -28 -10 0
-14 -10 -12 -36 l2 -37 -80 4 c-106 5 -626 5 -840 0 l-170 -4 1 24 c2 45 18
99 99 324 45 125 44 121 20 117 -17 -2 -16 1 8 23 31 28 38 29 84 16z m-161
-108 c-14 -14 -23 4 -13 27 l10 25 5 -23 c2 -13 1 -26 -2 -29z m-316 7 c0 -5
-7 -10 -15 -10 -8 0 -15 5 -15 10 0 6 7 10 15 10 8 0 15 -4 15 -10z m230 -315
c0 -8 -4 -15 -10 -15 -5 0 -7 7 -4 15 4 8 8 15 10 15 2 0 4 -7 4 -15z m977
-117 c-3 -8 -6 -5 -6 6 -1 11 2 17 5 13 3 -3 4 -12 1 -19z m-991 -35 c-8 -8
-36 5 -36 17 0 7 6 7 21 0 11 -7 18 -14 15 -17z"/>
<path d="M377 839 c-14 -8 -16 -14 -6 -25 9 -11 8 -15 -5 -20 -24 -9 -19 -39
10 -54 29 -16 51 -7 72 31 30 53 -18 99 -71 68z"/>
</g>
</svg>
